<?xml version="1.0" encoding="UTF-8"?>
<svg xmlns="http://www.w3.org/2000/svg" xmlns:xlink="http://www.w3.org/1999/xlink" width="48px" height="35px" viewBox="0 0 48 35" version="1.1">
<g id="surface1">
<path style=" stroke:none;fill-rule:nonzero;fill:rgb(72.941176%,60%,42.745098%);fill-opacity:1;" d="M 48 24.167969 L 21.195312 24.167969 L 18.957031 28.332031 L 46.128906 28.332031 Z M 48 24.167969 "/>
<path style=" stroke:none;fill-rule:nonzero;fill:rgb(72.941176%,60%,42.745098%);fill-opacity:1;" d="M 36.15625 35 L 15.375 35 L 17.726562 30.625 L 39.273438 30.625 Z M 36.15625 35 "/>
<path style=" stroke:none;fill-rule:nonzero;fill:rgb(49.411765%,41.568627%,29.019608%);fill-opacity:1;" d="M 0 35 L 4.988281 35 L 18.210938 11.25 L 15.585938 7.5 Z M 0 35 "/>
<path style=" stroke:none;fill-rule:nonzero;fill:rgb(49.411765%,41.568627%,29.019608%);fill-opacity:1;" d="M 12.257812 35 L 22.234375 17.082031 L 19.667969 13.332031 L 7.480469 35 Z M 12.257812 35 "/>
<path style=" stroke:none;fill-rule:nonzero;fill:rgb(62.352941%,51.764706%,37.647059%);fill-opacity:1;" d="M 29.296875 22.5 L 13.714844 0 L 18.910156 0 L 34.492188 22.5 Z M 29.296875 22.5 "/>
<path style=" stroke:none;fill-rule:nonzero;fill:rgb(62.352941%,51.764706%,37.647059%);fill-opacity:1;" d="M 41.765625 22.5 L 36.988281 22.5 L 24.519531 4.582031 L 29.714844 4.582031 Z M 41.765625 22.5 "/>
</g>
</svg>
